<svg xmlns="http://www.w3.org/2000/svg" width="23.028" height="20.25" viewBox="0 0 23.028 20.25">
  <path id="Path_617" data-name="Path 617" d="M2497.557,389.5l-.147.339-.851,1.971-6.12,1.6-.174.043-.113.139-3.89,4.722-.242.3.182.329.772,1.4h-2.232v8.055h-1.666V409.5h16.666v-1.112h-1.666v-5.833l2.543-1.762.113-.087.061-.121,5-10,.061-.122V389.5Zm.729,1.112h6.25l-4.661,9.34-7.664,5.329-.035.026-.026.017a1.107,1.107,0,0,1-1.85-.824,1.111,1.111,0,0,1,.33-.791l.017-.008v-.008l5.573-4.887.73-.634-.92-.313-2.5-.833-.225-.078-.218.121-3.054,1.666-.452.243.217.468.4.886h-1.952l-.885-1.606,3.533-4.288,6.215-1.623.261-.069.113-.252Zm-4.879,7.552,1.355.452-1.962,1.719h-1.38l-.4-.868Zm-7.552,3.281h5.677l-1.641,1.433-.009.008-.008.008a2.217,2.217,0,0,0,2.96,3.3l.009.008.052-.043,4.071-2.829v5.06h-11.11Z" transform="translate(-2482.953 -389.375)" fill="#0070d9" stroke="#0070d9" stroke-width="0.25"/>
</svg>
