<svg id="Group_1123" data-name="Group 1123" xmlns="http://www.w3.org/2000/svg" width="20" height="22.95" viewBox="0 0 20 22.95">
  <path id="Path_621" data-name="Path 621" d="M9.988,0C4.474,0,0,3.652,0,8.15a.352.352,0,0,0,.121.29l6.53,6.941a1.572,1.572,0,0,1,.629-.629L.992,8.029c.1-.435,1.113-1.04,2.684-1.04,1.669,0,2.588.629,2.733,1.113l1.983,6.384h.943L7.4,8.223a.539.539,0,0,1,0-.339,3.281,3.281,0,0,1,2.636-.895,3.281,3.281,0,0,1,2.588.871.383.383,0,0,1,.024.363l-1.935,6.264h.919L13.615,8.1c.169-.556,1.064-1.113,2.733-1.113,1.572,0,2.563.6,2.66,1.04l-6.288,6.723a1.573,1.573,0,0,1,.629.629l6.53-6.941A.383.383,0,0,0,20,8.15C19.976,3.652,15.5,0,9.988,0Z" fill="#747a88"/>
  <path id="Path_622" data-name="Path 622" d="M11.777,15.4H8.2a.919.919,0,0,0-.919.919v5.707a.919.919,0,0,0,.919.919h3.579a.919.919,0,0,0,.919-.919V16.324a.919.919,0,0,0-.919-.919Zm-1.959,3.41h.339a1.217,1.217,0,0,1,.193,2.418v.484a.1.1,0,0,1-.1.1H9.7a.1.1,0,0,1-.1-.1v-.484a1.232,1.232,0,0,1-1.016-1.088.1.1,0,0,1,.1-.1h.58c.048,0,.1.024.1.073a.488.488,0,0,0,.46.387h.314a.472.472,0,1,0,.024-.943h-.29a1.28,1.28,0,0,1-1.282-1.113A1.211,1.211,0,0,1,9.6,17.122v-.484a.1.1,0,0,1,.1-.1h.556a.1.1,0,0,1,.1.1v.484a1.232,1.232,0,0,1,1.016,1.088.1.1,0,0,1-.1.1h-.556c-.049,0-.1-.024-.1-.072a.488.488,0,0,0-.46-.387H9.843a.475.475,0,0,0-.484.387.483.483,0,0,0,.459.58Z" fill="#747a88"/>
</svg>
