<svg xmlns="http://www.w3.org/2000/svg" width="28.269" height="28.268" viewBox="0 0 28.269 28.268">
  <path id="noun-pin-4270040" d="M164.727,24.742l-4.8-4.8a2.2,2.2,0,0,0-3.036,0l-.166.165a2.147,2.147,0,0,0-.172,2.823l-2.924,2.926a6.5,6.5,0,0,0-5.757,1.784.859.859,0,0,0,0,1.214l3.366,3.366L145.358,38.1l1.214,1.214,5.876-5.876,3.366,3.366a.859.859,0,0,0,1.214,0,6.5,6.5,0,0,0,1.785-5.761l2.925-2.92a2.126,2.126,0,0,0,2.823-.172l.166-.165a2.147,2.147,0,0,0,0-3.041Z" transform="translate(-116.454 103.256) rotate(-45)" fill="#ced4da"/>
</svg>
