<svg xmlns="http://www.w3.org/2000/svg" width="16.12" height="11.975" viewBox="0 0 16.12 11.975">
  <g id="Group_1007" data-name="Group 1007" transform="translate(0.25 0.25)">
    <path id="Path_45" data-name="Path 45" d="M2145.619,2920.856a6.4,6.4,0,0,1-2.025,1.51,9,9,0,0,1-2.619.773.284.284,0,0,1-.313-.161c-.182-.318-.372-.63-.55-.95a.189.189,0,0,0-.235-.116,13.189,13.189,0,0,1-4.174,0,.145.145,0,0,0-.179.086c-.189.331-.384.658-.574.988a.271.271,0,0,1-.3.155,8.972,8.972,0,0,1-2.809-.869,6.927,6.927,0,0,1-1.7-1.252.424.424,0,0,1-.133-.41c.121-.685.221-1.373.359-2.055a21.847,21.847,0,0,1,1.157-4.049c.19-.459.4-.91.609-1.362a.412.412,0,0,1,.158-.176,10.268,10.268,0,0,1,3.19-1.245,2.394,2.394,0,0,1,.377-.046.239.239,0,0,1,.272.227c.026.155.047.31.074.486a16.722,16.722,0,0,1,3.2,0c.026-.17.047-.32.073-.469.034-.2.126-.283.33-.241.466.1.934.2,1.389.332a9.183,9.183,0,0,1,2.068.922.7.7,0,0,1,.246.272,19.668,19.668,0,0,1,1.646,4.924c.161.79.29,1.587.434,2.381.006.034.018.067.027.1Zm-9.938-8.668c-.05.008-.074.01-.1.015a9.869,9.869,0,0,0-2.892,1.1.493.493,0,0,0-.189.2,18.528,18.528,0,0,0-1.327,3.706,30.9,30.9,0,0,0-.663,3.345.224.224,0,0,0,.074.213,7.067,7.067,0,0,0,3.9,1.853.157.157,0,0,0,.13-.036c.159-.259.309-.522.467-.794-.066-.021-.113-.037-.161-.051a6.392,6.392,0,0,1-2.462-1.291.249.249,0,0,1-.056-.373.253.253,0,0,1,.378,0,6.181,6.181,0,0,0,3.068,1.355,12.156,12.156,0,0,0,3.887,0,6.4,6.4,0,0,0,2.887-1.188c.089-.067.17-.146.26-.212a.237.237,0,0,1,.329.033.242.242,0,0,1-.01.332,1.057,1.057,0,0,1-.079.072,6.508,6.508,0,0,1-2.443,1.265c-.046.014-.091.03-.146.048.157.269.3.526.456.775a.178.178,0,0,0,.149.051c.185-.029.369-.068.552-.11a6.871,6.871,0,0,0,3.342-1.725.231.231,0,0,0,.079-.238c-.12-.654-.221-1.312-.351-1.964a20.206,20.206,0,0,0-1.646-5.07.5.5,0,0,0-.188-.2,9.973,9.973,0,0,0-1.921-.843c-.346-.11-.7-.192-1.069-.291l-.039.3c.325.1.641.2.95.31a6.752,6.752,0,0,1,1.639.832c.142.1.18.213.12.337-.072.147-.223.17-.39.072-.3-.18-.606-.373-.925-.526a5.962,5.962,0,0,0-1.788-.585,11.472,11.472,0,0,0-1.658-.095,10.788,10.788,0,0,0-1.9.13,6.6,6.6,0,0,0-2.539,1.067c-.159.11-.3.093-.387-.037a.242.242,0,0,1,.109-.36c.438-.246.871-.5,1.327-.709.4-.18.829-.3,1.26-.447Z" transform="translate(-2129.999 -2911.67)" fill="#747a88" stroke="#747a88" stroke-miterlimit="10" stroke-width="0.5"/>
    <path id="Path_46" data-name="Path 46" d="M2136.878,2918.121a1.571,1.571,0,0,1-.488,1.146,1.253,1.253,0,0,1-1.738.008,1.639,1.639,0,0,1-.069-2.281,1.268,1.268,0,0,1,1.994.154A1.644,1.644,0,0,1,2136.878,2918.121Zm-.488-.005a1.13,1.13,0,0,0-.255-.74.779.779,0,0,0-1.2-.038,1.165,1.165,0,0,0-.007,1.532.774.774,0,0,0,1.129.045A1.081,1.081,0,0,0,2136.39,2918.116Z" transform="translate(-2129.999 -2911.67)" fill="#747a88" stroke="#747a88" stroke-miterlimit="10" stroke-width="0.5"/>
    <path id="Path_47" data-name="Path 47" d="M2140.081,2916.548a1.406,1.406,0,0,1,1.081.6,1.65,1.65,0,0,1-.02,1.925,1.274,1.274,0,0,1-2.085,0,1.607,1.607,0,0,1,.479-2.358A3.493,3.493,0,0,1,2140.081,2916.548Zm-.855,1.561a1.13,1.13,0,0,0,.232.7.788.788,0,0,0,1.253.032,1.166,1.166,0,0,0-.012-1.486.779.779,0,0,0-1.222.025A1.126,1.126,0,0,0,2139.226,2918.109Z" transform="translate(-2129.999 -2911.67)" fill="#747a88" stroke="#747a88" stroke-miterlimit="10" stroke-width="0.5"/>
  </g>
</svg>
