<svg xmlns="http://www.w3.org/2000/svg" width="41" height="41" viewBox="0 0 41 41">
  <g id="Group_5012" data-name="Group 5012" transform="translate(-459.5 -170.5)">
    <g id="Group_4786" data-name="Group 4786" transform="translate(-7450 -105)">
      <circle id="Ellipse_26" data-name="Ellipse 26" cx="20" cy="20" r="20" transform="translate(7910 276)" fill="none" stroke="#232633" stroke-width="1"/>
    </g>
    <path id="thumbs-up" d="M7.762,11.75v3A2.25,2.25,0,0,0,10.012,17l3-6.75V2H4.552a1.5,1.5,0,0,0-1.5,1.275l-1.035,6.75a1.5,1.5,0,0,0,1.5,1.725ZM13.012,2h2.25a1.5,1.5,0,0,1,1.5,1.5V8.75a1.5,1.5,0,0,1-1.5,1.5h-2.25" transform="translate(470.619 181)" fill="none" stroke="#232633" stroke-linecap="round" stroke-linejoin="round" stroke-width="1"/>
  </g>
</svg>
