<svg xmlns="http://www.w3.org/2000/svg" width="39.992" height="40" viewBox="0 0 39.992 40">
  <path id="noun-give-3364926" d="M124.5,34.91a5.256,5.256,0,0,0-3.717,8.973l6.4,6.4a.714.714,0,0,0,1.134.121l6.521-6.526a5.256,5.256,0,0,0-7.027-7.8A5.253,5.253,0,0,0,124.5,34.91Zm0,1.421a3.825,3.825,0,0,1,2.71,1.134l.1.1h0a.714.714,0,0,0,1.007,0l.1-.1a3.832,3.832,0,0,1,5.42,5.419l-6.021,6.026-6.025-6.026a3.844,3.844,0,0,1,2.71-6.553Zm17.135,13.724a3.37,3.37,0,0,0-2.391.988l-4.127,4.127a3.559,3.559,0,0,0-3.016-1.684h-11.43c-3.095,0-4.787,1.633-6.215,3.062l-3.067,3.069-.923-.923h0a.714.714,0,0,0-1.013,0l-4.284,4.284h0a.714.714,0,0,0,0,1.014L115.885,74.7a.715.715,0,0,0,1.01,0l4.284-4.284h0a.714.714,0,0,0,0-1.01l-.925-.925.923-.923a2.9,2.9,0,0,1,2.352-1.219h10a7.1,7.1,0,0,0,5.956-3.318c1.67-2.419,3.309-5.427,4.622-7.289a4.367,4.367,0,0,0,.843-2.333,3.152,3.152,0,0,0-.92-2.356,3.374,3.374,0,0,0-2.392-.988Zm0,1.417a1.945,1.945,0,0,1,1.381.58,1.629,1.629,0,0,1,.5,1.294,3,3,0,0,1-.581,1.562c-1.405,1.992-3.027,4.98-4.629,7.3a5.514,5.514,0,0,1-4.781,2.7h-10a4.551,4.551,0,0,0-3.362,1.637l-.923.923L112.4,60.626l3.064-3.066c1.428-1.428,2.59-2.646,5.208-2.646H132.1a2.143,2.143,0,0,1,0,4.286H125.67a.714.714,0,1,0,0,1.428H132.1a3.571,3.571,0,0,0,3.545-3.97l4.607-4.607a1.949,1.949,0,0,1,1.382-.58Zm-31.677,8.734,9.7,9.7-3.278,3.276-9.7-9.7Z" transform="translate(-104.96 -34.91)" fill="#232633"/>
</svg>
