<svg xmlns="http://www.w3.org/2000/svg" width="20.497" height="20.501" viewBox="0 0 20.497 20.501">
  <g id="Group_4824" data-name="Group 4824" transform="translate(-39.75 -424.749)">
    <path id="Path_6508" data-name="Path 6508" d="M144.4,55.692a.749.749,0,0,0-.444.226l-2.261,2.261-1.762-1.769a1.741,1.741,0,0,0-2.471,0l-3.484,3.5a.748.748,0,0,0,0,1.06l5.994,5.994a.748.748,0,0,0,1.06,0l3.484-3.5a1.761,1.761,0,0,0,0-2.471l-1.762-1.762,2.261-2.261a.748.748,0,0,0-.616-1.278Zm-5.706,1.7a.259.259,0,0,1,.179.078l4.584,4.584a.232.232,0,0,1,0,.351l-2.955,2.97-4.934-4.935,2.954-2.97a.229.229,0,0,1,.172-.078Zm-5.519,5.784a.749.749,0,0,0-.444.226l-1.59,1.59-.6-.608a.753.753,0,0,0-1.06,0l-3.492,3.492a1.761,1.761,0,0,0,0,2.471l1.769,1.77-2.261,2.261a.748.748,0,1,0,1.06,1.052l2.261-2.253,1.754,1.754a1.761,1.761,0,0,0,2.471,0l3.492-3.492a.748.748,0,0,0,0-1.052l-.592-.6,1.59-1.59a.747.747,0,1,0-1.06-1.052l-1.59,1.59L132.2,66.045l1.59-1.59a.748.748,0,0,0-.616-1.278Zm-3.165,2.8,4.934,4.942-2.962,2.962a.232.232,0,0,1-.351,0l-4.584-4.592a.232.232,0,0,1,0-.351Z" transform="translate(-85.24 369.314)" fill="#454c66" stroke="#454c66" stroke-width="0.5"/>
  </g>
</svg>
