<svg xmlns="http://www.w3.org/2000/svg" width="41" height="41" viewBox="0 0 41 41">
  <g id="Group_5011" data-name="Group 5011" transform="translate(-409.5 -170.5)">
    <g id="Group_4785" data-name="Group 4785" transform="translate(-7500 -105)">
      <circle id="Ellipse_26" data-name="Ellipse 26" cx="20" cy="20" r="20" transform="translate(7910 276)" fill="none" stroke="#232633" stroke-width="1"/>
    </g>
    <path id="thumbs-up" d="M11,7.25v-3A2.25,2.25,0,0,0,8.75,2l-3,6.75V17h8.46a1.5,1.5,0,0,0,1.5-1.275l1.035-6.75a1.5,1.5,0,0,0-1.5-1.725ZM5.75,17H3.5A1.5,1.5,0,0,1,2,15.5V10.25a1.5,1.5,0,0,1,1.5-1.5H5.75" transform="translate(420.619 181)" fill="none" stroke="#232633" stroke-linecap="round" stroke-linejoin="round" stroke-width="1"/>
  </g>
</svg>
