<svg xmlns="http://www.w3.org/2000/svg" width="16" height="13.315" viewBox="0 0 16 13.315">
  <g id="Group_1006" data-name="Group 1006" transform="translate(0.5 0.501)">
    <path id="Path_44" data-name="Path 44" d="M2145,2872.489a7.439,7.439,0,0,1-2.141,1.043,3.055,3.055,0,0,0-5.359,2.045v.682a7.267,7.267,0,0,1-6.136-3.088s-2.728,6.136,3.409,8.863A7.939,7.939,0,0,1,2130,2883.4c6.136,3.409,13.636,0,13.636-7.841a3.082,3.082,0,0,0-.054-.566A5.26,5.26,0,0,0,2145,2872.489Z" transform="translate(-2129.999 -2872.482)" fill="none" stroke="#747a88" stroke-linecap="round" stroke-linejoin="round" stroke-width="1"/>
  </g>
</svg>
