<?xml version="1.0" encoding="utf-8"?>
<!-- Generator: Adobe Illustrator 24.0.1, SVG Export Plug-In . SVG Version: 6.00 Build 0)  -->
<svg version="1.1" id="Layer_1" xmlns="http://www.w3.org/2000/svg" xmlns:xlink="http://www.w3.org/1999/xlink" x="0px" y="0px"
	 viewBox="0 0 206 52" style="enable-background:new 0 0 206 52;" xml:space="preserve">
<style type="text/css">
	.st0{enable-background:new    ;}
	.st1{fill:#232633;}
</style>
<g class="st0">
	<path class="st1" d="M66.4,31.9h5.9V34h-8.6V17.1h2.7V31.9z"/>
	<path class="st1" d="M77.1,17.1V34h-2.7V17.1H77.1z"/>
	<path class="st1" d="M93.2,18.4c1.3,1,2.2,2.3,2.7,4.1H93c-0.4-0.9-1-1.6-1.8-2.2s-1.8-0.8-3-0.8c-1.1,0-2,0.2-2.8,0.7
		c-0.8,0.5-1.5,1.2-2,2.1c-0.5,0.9-0.7,2-0.7,3.2c0,1.3,0.2,2.4,0.7,3.3s1.2,1.6,2,2.1c0.9,0.5,1.9,0.7,3,0.7c1.4,0,2.6-0.4,3.6-1.3
		c1-0.9,1.6-2.1,1.8-3.6h-6.2v-2h8.5v2.6c-0.2,1.2-0.6,2.4-1.3,3.4c-0.7,1-1.6,1.8-2.8,2.4c-1.1,0.6-2.5,0.9-3.9,0.9
		c-1.6,0-3.1-0.4-4.4-1.1c-1.3-0.7-2.2-1.8-2.9-3.1c-0.7-1.3-1-2.8-1-4.5c0-1.7,0.3-3.2,1-4.5c0.7-1.3,1.7-2.3,2.9-3
		c1.3-0.7,2.7-1.1,4.4-1.1C90.2,16.9,91.9,17.4,93.2,18.4z"/>
	<path class="st1" d="M112.4,17.1V34h-2.8v-7.6h-8V34H99V17.1h2.7v7.1h8v-7.1H112.4z"/>
	<path class="st1" d="M126.7,17.1v2.2h-4.7V34h-2.8V19.3h-4.7v-2.2H126.7z"/>
	<path class="st1" d="M142.2,17.1V34h-2.8v-7.6h-8V34h-2.7V17.1h2.7v7.1h8v-7.1H142.2z"/>
	<path class="st1" d="M157.6,17.9c1.3,0.7,2.3,1.8,3,3.1c0.7,1.3,1.1,2.8,1.1,4.5c0,1.7-0.4,3.2-1.1,4.5c-0.7,1.3-1.7,2.4-3,3.1
		s-2.7,1.1-4.3,1.1c-1.6,0-3-0.4-4.3-1.1s-2.3-1.8-3-3.1c-0.7-1.3-1.1-2.8-1.1-4.5c0-1.7,0.4-3.2,1.1-4.5c0.7-1.3,1.7-2.3,3-3.1
		c1.3-0.7,2.7-1.1,4.3-1.1C154.9,16.8,156.3,17.2,157.6,17.9z M150.4,20.1c-0.8,0.5-1.5,1.2-2,2.1c-0.5,0.9-0.7,2-0.7,3.2
		c0,1.2,0.2,2.3,0.7,3.2c0.5,0.9,1.1,1.6,2,2.1c0.8,0.5,1.8,0.7,2.9,0.7c1.1,0,2-0.2,2.9-0.7s1.5-1.2,2-2.1c0.5-0.9,0.7-2,0.7-3.2
		c0-1.2-0.2-2.3-0.7-3.2c-0.5-0.9-1.1-1.6-2-2.1s-1.8-0.7-2.9-0.7C152.2,19.4,151.3,19.6,150.4,20.1z"/>
	<path class="st1" d="M167,17.1v10.1c0,1.5,0.3,2.6,1,3.4c0.7,0.7,1.6,1.1,2.8,1.1c1.2,0,2.1-0.4,2.8-1.1c0.7-0.7,1-1.9,1-3.4V17.1
		h2.7v10.1c0,2.3-0.6,4.1-1.8,5.3c-1.2,1.2-2.8,1.8-4.8,1.8c-2,0-3.5-0.6-4.7-1.8c-1.2-1.2-1.8-2.9-1.8-5.3V17.1H167z"/>
	<path class="st1" d="M191.1,31.8c-0.4,0.7-1,1.3-1.8,1.7c-0.8,0.4-1.8,0.6-3,0.6c-1.2,0-2.2-0.2-3.1-0.6c-0.9-0.4-1.6-1-2.2-1.7
		c-0.5-0.7-0.9-1.6-0.9-2.5h2.9c0.1,0.7,0.4,1.4,0.9,1.9c0.6,0.5,1.3,0.8,2.2,0.8c0.8,0,1.5-0.2,1.9-0.7c0.5-0.4,0.7-1,0.7-1.7
		c0-0.6-0.2-1.1-0.5-1.5c-0.3-0.4-0.8-0.7-1.2-0.9s-1.2-0.5-2-0.8c-1.1-0.3-1.9-0.7-2.6-1c-0.7-0.3-1.2-0.8-1.7-1.5
		c-0.5-0.6-0.7-1.5-0.7-2.5c0-0.9,0.2-1.7,0.7-2.4c0.4-0.7,1.1-1.2,1.9-1.6s1.8-0.6,2.9-0.6c1.7,0,3.1,0.4,4.1,1.2s1.6,1.9,1.7,3.3
		h-3c-0.1-0.6-0.4-1.2-0.9-1.6c-0.5-0.5-1.2-0.7-2-0.7c-0.8,0-1.4,0.2-1.8,0.6c-0.5,0.4-0.7,1-0.7,1.7c0,0.6,0.2,1.1,0.5,1.4
		s0.7,0.7,1.2,0.9c0.5,0.2,1.2,0.5,2,0.8c1.1,0.3,1.9,0.7,2.6,1c0.7,0.3,1.3,0.8,1.7,1.5c0.5,0.7,0.7,1.5,0.7,2.6
		C191.7,30.3,191.5,31.1,191.1,31.8z"/>
	<path class="st1" d="M197.1,19.3v5.1h6.2v2.1h-6.2v5.3h7V34h-9.7V17.1h9.7v2.2H197.1z"/>
</g>
<g>
	<defs>
		<circle id="SVGID_1_" cx="28.8" cy="26" r="25.5"/>
	</defs>
	<clipPath id="SVGID_2_">
		<use xlink:href="#SVGID_1_"  style="overflow:visible;"/>
	</clipPath>
	<g style="clip-path:url(#SVGID_2_);">
		
			<image style="overflow:visible;" width="208" height="208" xlink:href="Mask Group 2.png"  transform="matrix(0.25 0 0 0.25 2.8261 0)">
		</image>
	</g>
</g>
</svg>
