<svg xmlns="http://www.w3.org/2000/svg" width="42" height="42" viewBox="0 0 42 42">
  <g id="Group_5141" data-name="Group 5141" transform="translate(12163 -5436)">
    <circle id="Ellipse_334" data-name="Ellipse 334" cx="21" cy="21" r="21" transform="translate(-12163 5436)" fill="#3e9afb"/>
    <g id="Group_5140" data-name="Group 5140" transform="translate(-12159 5447)">
      <path id="Path_12" data-name="Path 12" d="M5283.833,2178.93c.018-.353.246-.489.413-.659.74-.754,1.52-1.472,2.222-2.259.447-.5.726-.45,1.174.006,1.776,1.809,3.635,3.539,5.371,5.384.729.775,1.126.678,1.808-.031,1.757-1.827,3.614-3.557,5.4-5.361.451-.456.721-.477,1.188-.022,1.917,1.867,3.9,3.666,5.8,5.552.611.607.94.533,1.495-.044,1.78-1.854,3.634-3.638,5.423-5.483.458-.473.731-.48,1.166.009.7.788,1.455,1.534,2.224,2.257.434.408.43.684,0,1.111q-4.559,4.553-9.069,9.155c-.484.494-.758.245-1.119-.1-1.9-1.831-3.837-3.631-5.716-5.486-.572-.565-.926-.623-1.525-.011-1.8,1.837-3.68,3.59-5.492,5.412-.5.5-.8.585-1.342.034-2.943-2.983-5.927-5.925-8.9-8.883C5284.159,2179.313,5283.984,2179.1,5283.833,2178.93Z" transform="translate(-5283.833 -2168.178)" fill="#fff"/>
      <path id="Path_13" data-name="Path 13" d="M5300.859,2168.178a13.461,13.461,0,0,1,10.624,4.979c.416.5.464.831-.085,1.273a19.1,19.1,0,0,0-2.175,2c-.606.666-.865.442-1.3-.183a8.283,8.283,0,0,0-7.081-3.91,7.869,7.869,0,0,0-6.866,3.851c-.544.832-.855.755-1.425.1a10.81,10.81,0,0,0-1.752-1.676c-.8-.582-.646-1.046-.109-1.707A12.671,12.671,0,0,1,5300.859,2168.178Z" transform="translate(-5283.833 -2168.178)" fill="#fff"/>
    </g>
  </g>
</svg>
