<svg xmlns="http://www.w3.org/2000/svg" width="16" height="23.2" viewBox="0 0 16 23.2">
  <g id="Group_1129" data-name="Group 1129" transform="translate(-713 -359)">
    <g id="Group_1128" data-name="Group 1128" transform="translate(713 359)">
      <path id="Path_623" data-name="Path 623" d="M8,8.8a4,4,0,1,0,2.827,1.173A4,4,0,0,0,8,8.8Zm2.683,3.083-2.4,2.4a.4.4,0,0,1-.566,0l-2.4-2.4a.4.4,0,0,1,.566-.566L8,13.434l2.117-2.117a.4.4,0,0,1,.566.566Z" fill="#747a88"/>
      <path id="Path_624" data-name="Path 624" d="M5.6,3.2h4.8a1.6,1.6,0,1,0,0-3.2H5.6a1.6,1.6,0,1,0,0,3.2Z" fill="#747a88"/>
      <path id="Path_625" data-name="Path 625" d="M14.4,1.2H12.764A2.386,2.386,0,0,1,10.4,4H5.6A2.386,2.386,0,0,1,3.236,1.2H1.6A1.6,1.6,0,0,0,0,2.8V21.6a1.6,1.6,0,0,0,1.6,1.6H14.4A1.6,1.6,0,0,0,16,21.6V2.8a1.6,1.6,0,0,0-1.6-1.6ZM8,17.6a4.806,4.806,0,1,1,3.392-1.408A4.8,4.8,0,0,1,8,17.6Z" fill="#747a88"/>
    </g>
  </g>
</svg>
