<svg xmlns="http://www.w3.org/2000/svg" width="21.825" height="15" viewBox="0 0 21.825 15">
  <path id="noun-wallet-2571487" d="M102.243,102.878h4.44a.17.17,0,0,0,.17-.17v-2.523a1.363,1.363,0,0,0-1.364-1.364H87.763a1.368,1.368,0,0,0-1.364,1.364v12.273a1.363,1.363,0,0,0,1.364,1.364H105.49a1.368,1.368,0,0,0,1.364-1.364v-2.591a.17.17,0,0,0-.17-.17h-4.6a3.414,3.414,0,0,1-3.391-3.761,3.516,3.516,0,0,1,3.547-3.057Zm-.156,1.364a2.048,2.048,0,0,0-2.008,2.444,2.1,2.1,0,0,0,2.085,1.646h5.378a.682.682,0,0,0,.682-.682v-2.727a.682.682,0,0,0-.682-.682Zm.021,3.457a1.364,1.364,0,1,1,1.364-1.364A1.365,1.365,0,0,1,102.108,107.7Z" transform="translate(-86.399 -98.821)" fill="#747a88"/>
</svg>
