<svg xmlns="http://www.w3.org/2000/svg" width="15.42" height="15.25" viewBox="0 0 15.42 15.25">
  <g id="Group_4306" data-name="Group 4306" transform="translate(10316.947 -8557.999)">
    <path id="Path_3151" data-name="Path 3151" d="M163.149,105.719l-1.161,1.164-1.628-.977-.977-1.628,1.161-1.161,1.632.977Z" transform="translate(-10476.33 8455.352)" fill="#747a88"/>
    <path id="Path_3152" data-name="Path 3152" d="M197.983,293.035l-.616.754c-.828,1-1.582,1.932-2.191,2.7a2.352,2.352,0,0,1-1.437.747,1.772,1.772,0,0,1-1.331-.255,3.756,3.756,0,0,1-.672-.672,1.774,1.774,0,0,1-.269-1.348,2.355,2.355,0,0,1,.754-1.448c.9-.7,1.947-1.557,3.061-2.47l.389-.322Z" transform="translate(-10507.087 8275.334)" fill="#747a88"/>
    <path id="Path_3153" data-name="Path 3153" d="M359.513,94.5l-1.1,2.846a2.672,2.672,0,0,1-2.892.5.358.358,0,0,0-.421.106l-.085.11c-.142.18-.287.365-.446.563l-.782.956-1.908-1.908c.531-.432,1.037-.839,1.49-1.2a.355.355,0,0,0,.064-.488,2.682,2.682,0,0,1,.216-3.415l2.835-1.1.549.545-2.145,2.141a.366.366,0,0,0-.1.251.372.372,0,0,0,.1.251l1.918,1.918a.357.357,0,0,0,.5,0l2.141-2.145Z" transform="translate(-10661.04 8466.521)" fill="#747a88"/>
    <path id="Path_3154" data-name="Path 3154" d="M224.942,167.43l0,0-1.164,1.161Z" transform="translate(-10538.123 8393.641)" fill="#747a88"/>
    <path id="Path_3155" data-name="Path 3155" d="M365.267,300.113l-.039.043-3.072,3.072-.733-.736,2.216-2.215.9-.9Z" transform="translate(-10670.198 8267.027)" fill="#747a88"/>
    <path id="Path_3156" data-name="Path 3156" d="M237.52,182.3l1.051-1.051L244,186.678l-1.051,1.051Z" transform="translate(-10551.307 8380.378)" fill="#747a88"/>
    <path id="Path_3157" data-name="Path 3157" d="M412.237,340.842a1.567,1.567,0,0,1-2.676,1.1l-2.644-2.644,2.212-2.212,2.647,2.644A1.543,1.543,0,0,1,412.237,340.842Z" transform="translate(-10713.854 8230.844)" fill="#747a88"/>
  </g>
</svg>
