<svg xmlns="http://www.w3.org/2000/svg" width="81" height="81" viewBox="0 0 81 81">
  <g id="Group_1144" data-name="Group 1144" transform="translate(10964.5 5836.5)">
    <rect id="Rectangle_586" data-name="Rectangle 586" width="80" height="80" rx="40" transform="translate(-10964 -5836)" fill="#f8f9fa" stroke="#ced4da" stroke-width="1"/>
    <g id="Group_919" data-name="Group 919" transform="translate(-10943.536 -5816.196)">
      <path id="Path_602" data-name="Path 602" d="M23.439,11.855h0a.539.539,0,0,0-.257-.462.539.539,0,0,1,.257.462" transform="translate(1.922 0.944)" fill="#150829"/>
      <path id="Path_603" data-name="Path 603" d="M23.439,11.855h0a.539.539,0,0,0-.257-.462.539.539,0,0,1,.257.462" transform="translate(1.922 0.944)" fill="none" stroke="#150829" stroke-width="0.25"/>
      <path id="Path_604" data-name="Path 604" d="M31,39.178a.782.782,0,0,0-.6-.3H26.237L25.068,12.9v-.082a.673.673,0,0,0-.306-.623v-.131H23.219V6.6H24.29a.789.789,0,0,0,.7-.457.736.736,0,0,0-.164-.885L19.549.235a.772.772,0,0,0-1.1-.009L13.163,5.253a.72.72,0,0,0-.18.85.71.71,0,0,0,.72.5h1.066v5.415H13.5a.493.493,0,0,0-.345.182l-.091.1a1,1,0,0,0-.141.437L11.751,38.822H7.566a.83.83,0,0,0-.766.784.785.785,0,0,0,.784.783h22.8a.756.756,0,0,0,.754-.713v-.047A.6.6,0,0,0,31,39.178M18.975,9.191a.831.831,0,0,0-.766.783v2.043H16.336V6.6H21.65v5.415H19.778V9.974a.791.791,0,0,0-.8-.783M14.09,21.366l.384-7.78H23.51l.336,7.78ZM24.614,38.873h-11.3l.384-7.932H24.277Z" transform="translate(0.564 0)" fill="#150829"/>
      <path id="Path_605" data-name="Path 605" d="M25.956,5.281a.4.4,0,0,0,.251-.073l6.53-1.344a.775.775,0,0,0-.394-1.5l-6.6,1.357a.794.794,0,0,0-.546.924.775.775,0,0,0,.759.632" transform="translate(2.088 0.195)" fill="#0070d9"/>
      <path id="Path_606" data-name="Path 606" d="M32.754,11.795l-6.573-1.35a.775.775,0,0,0-.367,1.505l6.63,1.356h.123a.889.889,0,0,0,.739-.515l.027-.087a.76.76,0,0,0-.578-.907" transform="translate(2.094 0.865)" fill="#0070d9"/>
      <path id="Path_607" data-name="Path 607" d="M36.982,7.747V7.731a.75.75,0,0,0-.784-.709H25.976a.785.785,0,0,0,0,1.569H36.2l.342-.044.142-.126a.769.769,0,0,0,.3-.6Z" transform="translate(2.087 0.582)" fill="#0070d9"/>
      <path id="Path_608" data-name="Path 608" d="M10.935,3.72,4.393,2.379l-.084-.023a.763.763,0,0,0-.583.112.776.776,0,0,0,.269,1.408l6.5,1.335a.374.374,0,0,0,.249.071.773.773,0,0,0,.757-.624.8.8,0,0,0-.57-.939" transform="translate(0.278 0.194)" fill="#0070d9"/>
      <path id="Path_609" data-name="Path 609" d="M11.1,10.555a.771.771,0,0,0-.583-.112L3.888,11.809a.756.756,0,0,0-.449.368.766.766,0,0,0-.044.611.885.885,0,0,0,.737.517h.012l6.769-1.364a.775.775,0,0,0,.19-1.386" transform="translate(0.279 0.865)" fill="#0070d9"/>
      <path id="Path_610" data-name="Path 610" d="M11.006,7.022H.71A.754.754,0,0,0,0,7.807a.787.787,0,0,0,.784.784H11.006a.785.785,0,1,0,0-1.569" transform="translate(0 0.582)" fill="#0070d9"/>
      <path id="Path_611" data-name="Path 611" d="M18.12,7.487h0a.785.785,0,0,1,.784.785V11.4H17.336V8.272a.785.785,0,0,1,.784-.785" transform="translate(1.438 0.62)" fill="#0070d9"/>
    </g>
  </g>
</svg>
