<svg xmlns="http://www.w3.org/2000/svg" width="16.946" height="20.8" viewBox="0 0 16.946 20.8">
  <path id="Path_619" data-name="Path 619" d="M2499.158,564.71a2.447,2.447,0,0,0-.8-1.418,3.954,3.954,0,0,0-.731-.509v-1.639a2.212,2.212,0,0,0-.6-1.44l-.021-.022-.576-.421v-1.307c0-1.861-2.945-3.455-6.445-3.455s-6.445,1.594-6.445,3.478v1.75a1.643,1.643,0,0,0,.376,1.063,4,4,0,0,0,.82.73v1.4a1.643,1.643,0,0,0,.376,1.063,4.957,4.957,0,0,0,1.152.974,1.217,1.217,0,0,0,.022.4v1.174a5,5,0,0,0-.709.266c-1.594.664-2.5,1.661-2.5,2.724v1.75a1.638,1.638,0,0,0,.377,1.063c.686.819,2.436,2.17,6.334,2.17,3.854,0,5.36-1.351,5.913-2.17a1.711,1.711,0,0,0,.288-.93V569.8a4.966,4.966,0,0,0,2.946-1.817,1.7,1.7,0,0,0,.288-.93v-2.193a1.288,1.288,0,0,1-.066-.154Zm-2.3-4.828a1.877,1.877,0,0,1,.531,1.262c0,1.75-2.834,3.211-6.179,3.211-2.9,0-5.515-1.151-6.069-2.635a10.239,10.239,0,0,0,5.138,1.085c3.942,0,5.4-1.285,5.914-2.038a1.7,1.7,0,0,0,.288-.93v-.243a2.758,2.758,0,0,0,.377.288Zm-6.866-5.117c3.345,0,6.18,1.462,6.18,3.212s-2.813,3.211-6.18,3.211-6.179-1.462-6.179-3.211,2.835-3.212,6.179-3.212Zm-5.87,5.826a1.35,1.35,0,0,1-.31-.886v-.775c.8,1.44,3.3,2.525,6.179,2.525s5.382-1.085,6.18-2.525v.908a1.509,1.509,0,0,1-.221.775c-.487.71-1.883,1.927-5.693,1.927-3.875,0-5.515-1.218-6.135-1.949Zm1.2,3.167a1.345,1.345,0,0,1-.311-.886V562.1c.8,1.44,3.322,2.5,6.179,2.5,2.88,0,5.382-1.086,6.18-2.525v.908a1.511,1.511,0,0,1-.222.775c-.532.775-1.95,2.06-5.693,2.06-3.787.022-5.47-1.285-6.134-2.06Zm6.113,2.347c3.854,0,5.36-1.35,5.914-2.17a1.65,1.65,0,0,0,.266-.863,2.43,2.43,0,0,1,.532.4,2.071,2.071,0,0,1,.73,1.484c0,1.75-2.835,3.211-6.179,3.211-2.68.022-5.183-1-5.914-2.37v-.022a1.385,1.385,0,0,1-.244-.73,9.835,9.835,0,0,0,4.9,1.062Zm-5.758.864c.133-.044.421-.155.62-.222v.089a1.643,1.643,0,0,0,.376,1.063c.687.819,2.437,2.17,6.335,2.17a12.907,12.907,0,0,0,2.7-.266,2.952,2.952,0,0,1-.686,1.085,6.571,6.571,0,0,1-1.285.886,9.716,9.716,0,0,1-4.208.886c-3.345,0-6.179-1.462-6.179-3.211-.022-.93.863-1.861,2.325-2.481Zm10.011,4.363a1.511,1.511,0,0,1-.222.775c-.532.776-1.949,2.06-5.693,2.06-3.765,0-5.448-1.306-6.113-2.082a1.35,1.35,0,0,1-.311-.886v-.775c.8,1.44,3.3,2.525,6.18,2.525a10.013,10.013,0,0,0,4.341-.93,5.659,5.659,0,0,0,1.351-.953,3.834,3.834,0,0,0,.487-.642v.908Zm3.234-4.363a1.511,1.511,0,0,1-.222.775c-.532.775-1.95,2.06-5.692,2.06-3.766,0-5.449-1.306-6.114-2.082a1.346,1.346,0,0,1-.31-.886v-.908c.775,1.484,3.323,2.525,6.157,2.525,2.88,0,5.383-1.085,6.18-2.525Z" transform="translate(-2482.678 -554.1)" fill="#0070d9" stroke="#0070d9" stroke-miterlimit="10" stroke-width="0.8"/>
</svg>
