<svg xmlns="http://www.w3.org/2000/svg" width="208.345" height="172.237" viewBox="0 0 208.345 172.237">
  <g id="Group_4949" data-name="Group 4949" transform="translate(-1416 -357.492)">
    <g id="Group_1154" data-name="Group 1154" transform="translate(-4261.494 -4198.174)">
      <path id="Path_9" data-name="Path 9" d="M5725.282,4704.6c-4.481,3.906-9.023,6.3-13.182,5.772-15.275-1.954-16.2-36.8-4.089-67.8a43.682,43.682,0,1,0,51.8,62.03Z" fill="#f8f9fa"/>
      <path id="Path_10" data-name="Path 10" d="M5760.122,4605c1.51,0,.741-.57.7-1.28A2.429,2.429,0,0,0,5760.122,4605Z" fill="#fff"/>
      <text id="_" data-name="?" transform="translate(5740.296 4581.666)" fill="#c7cacf" font-size="24" font-family="SegoeUI, Segoe UI"><tspan x="-5.379" y="0">?</tspan></text>
      <circle id="Ellipse_2" data-name="Ellipse 2" cx="19.467" cy="19.467" r="19.467" transform="translate(5685.296 4572.63)" fill="#f8f9fa"/>
      <path id="Path_11" data-name="Path 11" d="M5824.4,4557.174a61.435,61.435,0,0,0-55.282,34.615,82.146,82.146,0,0,1,17.325.8c31.7,4.7,49.37,26.935,56.282,45.326,4.416,11.745,9.507,23.255,11.756,34.253,19.858-10.18,31.353-29.708,31.353-53.557A61.434,61.434,0,0,0,5824.4,4557.174Z" fill="#f8f9fa"/>
      <line id="Line_5" data-name="Line 5" x1="12.473" transform="translate(5691.557 4704.598)" fill="none" stroke="#232633" stroke-linecap="round" stroke-linejoin="round" stroke-width="1"/>
      <line id="Line_6" data-name="Line 6" y2="14.079" transform="translate(5818.144 4690.519)" fill="none" stroke="#232633" stroke-linecap="round" stroke-linejoin="round" stroke-width="1"/>
      <line id="Line_7" data-name="Line 7" y2="5.749" transform="translate(5818.144 4668.989)" fill="none" stroke="#232633" stroke-linecap="round" stroke-linejoin="round" stroke-width="1"/>
      <line id="Line_8" data-name="Line 8" y2="16.55" transform="translate(5739.296 4688.048)" fill="none" stroke="#232633" stroke-linecap="round" stroke-linejoin="round" stroke-width="1"/>
      <line id="Line_9" data-name="Line 9" y2="22.402" transform="translate(5739.296 4636.804)" fill="none" stroke="#232633" stroke-linecap="round" stroke-linejoin="round" stroke-width="1"/>
      <path id="Path_12" data-name="Path 12" d="M5807.122,4591.634s27.848,8.689,38.413,37.593" fill="none" stroke="#232633" stroke-linecap="round" stroke-miterlimit="10" stroke-width="1"/>
      <circle id="Ellipse_3" data-name="Ellipse 3" cx="8.5" cy="8.5" r="8.5" transform="translate(5772.885 4618.253)" fill="#0099ab" opacity="0.3"/>
      <circle id="Ellipse_4" data-name="Ellipse 4" cx="12.56" cy="12.56" r="12.56" transform="translate(5768.826 4614.193)" fill="none" stroke="#0099ab" stroke-linecap="round" stroke-miterlimit="10" stroke-width="3"/>
      <line id="Line_10" data-name="Line 10" x1="8.058" y2="9.884" transform="translate(5765.187 4636.312)" fill="none" stroke="#0099ab" stroke-miterlimit="10" stroke-width="3"/>
      <path id="Path_13" data-name="Path 13" d="M5767.861,4615.217a18.1,18.1,0,0,0-3.011,17.74" fill="none" stroke="#232633" stroke-linecap="round" stroke-miterlimit="10" stroke-width="1"/>
      <path id="Path_14" data-name="Path 14" d="M5760.506,4603.5a19.023,19.023,0,0,0,9.833,7.217c10.305,3,16.438-7.4,14.873-15.746" fill="none" stroke="#232633" stroke-linecap="round" stroke-linejoin="round" stroke-width="1"/>
      <path id="Path_15" data-name="Path 15" d="M5768.826,4604.62s5.394-1.468,7.741,2.445" fill="none" stroke="#232633" stroke-linecap="round" stroke-linejoin="round" stroke-width="1"/>
      <path id="Path_16" data-name="Path 16" d="M5839.753,4681.9h-9a2,2,0,0,0-1.992,2.176l.347,3.938H5841.4l.347-3.938A2,2,0,0,0,5839.753,4681.9Z" fill="#3998ff"/>
      <path id="Path_17" data-name="Path 17" d="M5760.506,4603.5a28.062,28.062,0,0,1-4.058-7.783s-4.044-14.478,6.2-19.174,22.695,1.37,24.717,9.457-4.63,11.8-10.5,13.239-8.739-5.674-9.848-2.282-2.217,1.239-4.669-.718-1.592,1.174-.353,4.565-1.186,3.09-1.186,3.09Z" fill="#232633" stroke="#232633" stroke-miterlimit="10" stroke-width="1"/>
      <path id="Path_18" data-name="Path 18" d="M5808.823,4687.89l-3.315,10.775a2,2,0,0,1-2.444,1.339l-36.746-10.153a2,2,0,0,1-1.38-2.511l17.283-56.7a2,2,0,0,1,2.444-1.345l36.9,10.154a2,2,0,0,1,1.381,2.517l-9.983,32.446" fill="#dddfe2" stroke="#232633" stroke-linecap="round" stroke-linejoin="round" stroke-width="1"/>
      <path id="Path_19" data-name="Path 19" d="M5837.513,4675.641l-28.418-1.418c-16.386-11.837-26.658-7.973-24.848.587s19.81,7.875,19.81,7.875" fill="#fff" stroke="#232633" stroke-linecap="round" stroke-linejoin="round" stroke-width="1"/>
      <path id="Path_20" data-name="Path 20" d="M5809.1,4674.223l-3.5,10.585a2,2,0,0,0,1.355,2.553l22.663,6.393" fill="#fff" stroke="#232633" stroke-linecap="round" stroke-linejoin="round" stroke-width="1"/>
      <path id="Path_21" data-name="Path 21" d="M5840.652,4696.479s14.665,1.079,15.212-11.244c.586-13.244-6.22-28.931-13.133-47.322s-24.587-40.63-56.283-45.326-58.109,7.826-74.348,40.7-16.826,74.934,0,77.087c14.589,1.866,33.884-32.274,38.758-41.386a3.989,3.989,0,0,0-.28-4.209l-6.162-8.6" fill="none" stroke="#232633" stroke-linecap="round" stroke-linejoin="round" stroke-width="1"/>
      <line id="Line_11" data-name="Line 11" x2="132.087" transform="translate(5725.284 4704.598)" fill="none" stroke="#232633" stroke-linecap="round" stroke-linejoin="round" stroke-width="1"/>
      <path id="Path_22" data-name="Path 22" d="M5830.567,4704.6l-1.808-20.52a2,2,0,0,1,1.992-2.176h9a2,2,0,0,1,1.992,2.176l-1.808,20.52" fill="none" stroke="#232633" stroke-linecap="round" stroke-linejoin="round" stroke-width="1"/>
      <path id="Path_23" data-name="Path 23" d="M5727.361,4667.261l32.413-21.065s2.087-1.566,5.413,0,7.076,3.228,5.446,6.587-4.875,11.413-20.283,8.038" fill="none" stroke="#232633" stroke-linecap="round" stroke-linejoin="round" stroke-width="1"/>
    </g>
  </g>
</svg>
